<?xml version="1.0" encoding="UTF-8"?>
<svg width="35px" height="35px" viewBox="0 0 35 35" version="1.1" xmlns="http://www.w3.org/2000/svg" xmlns:xlink="http://www.w3.org/1999/xlink">
    <title>01logo</title>
    <g id="页面-1" stroke="none" stroke-width="1" fill="none" fill-rule="evenodd">
        <path d="M17.0713654,0.947982788 L31.828354,5.7802101 L31.828354,23.7622447 L17.0713654,34.6979828 L2.31437679,23.7622447 L2.31437679,5.7802101 L17.0713654,0.947982788 Z M17.071064,4.69288451 L5.87376399,8.35965329 L5.87376399,21.9693797 L17.071064,30.2677386 L28.268364,21.9693797 L28.268364,8.35965329 L17.071064,4.69288451 Z M22.9563094,14.5235524 L11.8530291,23.8401338 L10.1786094,23.8402636 L10.1786013,19.3463197 L10.1769699,19.3446739 L10.1786013,19.3432052 L10.1786094,19.3388022 L10.1839405,19.3387558 L15.9597523,14.5235524 L22.9563094,14.5235524 Z M24.4332371,19.3388022 L24.4332371,23.8402636 L13.6990523,23.8401338 L19.0635985,19.3387558 L24.4332371,19.3388022 Z M24.4332371,8.83539229 L24.4332371,13.2842683 L24.3703036,13.3370669 L10.1786094,13.3368537 L10.1786094,8.83539229 L24.4332371,8.83539229 Z" id="形状" fill="#1755DC"></path>
    </g>
</svg>