<?xml version="1.0" encoding="UTF-8"?>
<svg width="31px" height="31px" viewBox="0 0 31 31" version="1.1" xmlns="http://www.w3.org/2000/svg" xmlns:xlink="http://www.w3.org/1999/xlink">
    <title>67默认应用</title>
    <g id="页面-1" stroke="none" stroke-width="1" fill="none" fill-rule="evenodd">
        <g id="编组-10" transform="translate(0.145508, 0.180054)">
            <rect id="矩形备份-8" fill="#4C8DFD" x="0" y="0" width="30" height="30" rx="6.66666667"></rect>
            <g id="编组" transform="translate(7.500000, 7.500000)" fill="#FFFFFF" fill-rule="nonzero">
                <path d="M6.79807235,6.80884255 L6.79807235,2.4877109 C6.79807235,1.82791211 6.53604756,1.19512119 6.06949936,0.728572988 C5.60295116,0.262024787 4.97016024,0 4.31036145,0 L2.4877109,0 C1.82791211,0 1.19512119,0.262024787 0.728572988,0.728572988 C0.262024787,1.19512119 0,1.82791211 0,2.4877109 L0,4.32113166 C0,5.69505644 1.11378611,6.80884255 2.4877109,6.80884255 L6.79807235,6.80884255 Z M8.18121556,6.80884255 L12.512289,6.80884255 C13.8861664,6.80872818 14.9998855,5.69500907 14.9999998,4.32113166 L14.9999998,2.4877109 C14.9999998,1.11378611 13.8862137,0 12.512289,0 L10.6689265,0 C10.0091277,0 9.37633675,0.262024787 8.90978855,0.728572988 C8.44324035,1.19512119 8.18121556,1.82791211 8.18121556,2.4877109 L8.18121556,6.80884255 Z M6.79807234,8.1911573 L2.4877109,8.1911573 C1.82791211,8.1911573 1.19512119,8.45318209 0.728572988,8.91973029 C0.262024787,9.38627849 0,10.0190694 0,10.6788682 L0,12.512289 C0,13.8862137 1.11378611,14.9999998 2.4877109,14.9999998 L4.31036145,14.9999998 C5.68428624,14.9999998 6.79807234,13.8862137 6.79807234,12.512289 L6.79807234,8.1911573 Z M8.18121557,8.19115731 L8.18121557,12.512289 C8.18121557,13.8858903 9.29449675,14.9995424 10.668098,14.9999999 L12.5114605,14.9999999 C13.1713691,15.0001647 13.8043091,14.7381467 14.2710126,14.2715985 C14.7377162,13.8050503 14.9999998,13.1721976 14.9999998,12.512289 L14.9999998,10.6788682 C14.9999998,9.30494341 13.8862137,8.19115731 12.512289,8.19115731 L8.18121557,8.19115731 Z" id="形状"></path>
            </g>
        </g>
    </g>
</svg>