<?xml version="1.0" encoding="UTF-8"?>
<svg width="41px" height="41px" viewBox="0 0 41 41" version="1.1" xmlns="http://www.w3.org/2000/svg" xmlns:xlink="http://www.w3.org/1999/xlink">
    <title>60传文件-图</title>
    <g id="页面-1" stroke="none" stroke-width="1" fill="none" fill-rule="evenodd">
        <g id="编组-197备份" transform="translate(0.145508, 0.180054)">
            <rect id="矩形备份-95" stroke="#979797" fill="#D8D8D8" opacity="0" x="0.5" y="0.5" width="39" height="39"></rect>
            <g id="编组-196" transform="translate(3.000000, 2.000000)" fill-rule="nonzero">
                <g id="编组-195">
                    <path d="M8.14285482,35.1428574 L32.9999906,35.1428574 C33.236684,35.1428574 33.4285619,34.9509795 33.4285619,34.7142861 L33.4285619,9.42857905 L26.1428497,9.42857905 C25.4339927,9.42857905 24.8571357,8.85172209 24.8571357,8.14286514 L24.8571357,0.857152911 L8.14285482,0.857152911 C7.90616142,0.857152911 7.7142835,1.04903083 7.7142835,1.28572423 L7.7142835,34.7142861 C7.7142835,34.9509795 7.90616142,35.1428574 8.14285482,35.1428574 Z" id="路径" fill="#1E55D2"></path>
                    <path d="M33.2511333,8.57143642 L25.7142783,1.03458143 L25.7142783,8.14286514 C25.7142783,8.37955852 25.9061563,8.57143642 26.1428497,8.57143642 L33.2511333,8.57143642 L33.2511333,8.57143642 Z" id="路径" fill="#90B3F8"></path>
                    <path d="M33.9089903,8.01729372 L26.268421,0.376724491 C26.0279515,0.1347048 25.7005931,-0.000961386727 25.3594213,5.12906297e-06 L8.14285482,5.12906297e-06 C7.43399787,5.12906297e-06 6.85714091,0.576867277 6.85714091,1.28572423 L6.85714091,34.7142861 C6.85714091,35.423143 7.43399787,36.0000051 8.14285482,36.0000051 L32.9999906,36.0000051 C33.7088475,36.0000051 34.2857045,35.423143 34.2857045,34.7142861 L34.2857045,8.92629346 C34.2857045,8.58343643 34.1515617,8.26029365 33.9089903,8.01729372 Z M25.7142783,1.03458143 L33.2511333,8.57143642 L26.1428497,8.57143642 C25.9061563,8.57143642 25.7142783,8.37955852 25.7142783,8.14286514 L25.7142783,1.03458143 Z M32.9999906,35.1428574 L8.14285482,35.1428574 C7.90616142,35.1428574 7.7142835,34.9509795 7.7142835,34.7142861 L7.7142835,1.28572423 C7.7142835,1.04903083 7.90616142,0.857152911 8.14285482,0.857152911 L24.8571357,0.857152911 L24.8571357,8.14286514 C24.8571357,8.85172209 25.4339927,9.42857905 26.1428497,9.42857905 L33.4285619,9.42857905 L33.4285619,34.7142861 C33.4285619,34.9509795 33.236684,35.1428574 32.9999906,35.1428574 L32.9999906,35.1428574 Z" id="形状" fill="#1E55D2"></path>
                    <path d="M30.4285627,24.8571461 L25.7142783,24.8571461 C25.477585,24.8571461 25.2857071,24.6652681 25.2857071,24.4285747 L25.2857071,23.5714321 C25.2857071,23.3347388 25.477585,23.1428608 25.7142783,23.1428608 L30.4285627,23.1428608 C30.6652561,23.1428608 30.857134,23.3347388 30.857134,23.5714321 L30.857134,24.4285747 C30.857134,24.6652681 30.6652561,24.8571461 30.4285627,24.8571461 L30.4285627,24.8571461 Z" id="路径" fill="#FFFFFF"></path>
                    <path d="M23.5714218,24.8571461 L18.8571375,24.8571461 C18.6204441,24.8571461 18.4285662,24.6652681 18.4285662,24.4285747 L18.4285662,23.5714321 C18.4285662,23.3347387 18.6204441,23.1428608 18.8571375,23.1428608 L23.5714218,23.1428608 C23.8081152,23.1428608 23.9999932,23.3347387 23.9999932,23.5714321 L23.9999932,24.4285747 C23.9999932,24.6652681 23.8081152,24.8571461 23.5714218,24.8571461 Z" id="路径" fill="#FFFFFF"></path>
                    <path d="M30.4285627,21.4285756 L25.7142783,21.4285756 C25.477585,21.4285756 25.2857071,21.2366977 25.2857071,21.0000043 L25.2857071,20.1428617 C25.2857071,19.9061683 25.477585,19.7142904 25.7142783,19.7142904 L30.4285627,19.7142904 C30.6652561,19.7142904 30.857134,19.9061683 30.857134,20.1428617 L30.857134,21.0000043 C30.857134,21.2366977 30.6652561,21.4285756 30.4285627,21.4285756 L30.4285627,21.4285756 Z" id="路径" fill="#FFFFFF"></path>
                    <path d="M23.5714218,21.4285756 L18.8571375,21.4285756 C18.6204441,21.4285756 18.4285662,21.2366977 18.4285662,21.0000043 L18.4285662,20.1428617 C18.4285662,19.9061683 18.6204441,19.7142904 18.8571375,19.7142904 L23.5714218,19.7142904 C23.8081152,19.7142904 23.9999932,19.9061683 23.9999932,20.1428617 L23.9999932,21.0000043 C23.9999932,21.2366977 23.8081152,21.4285756 23.5714218,21.4285756 Z" id="路径" fill="#FFFFFF"></path>
                    <path d="M30.4285627,18.0000052 L25.7142783,18.0000052 C25.477585,18.0000052 25.2857071,17.8081272 25.2857071,17.5714338 L25.2857071,16.7142912 C25.2857071,16.4775979 25.477585,16.2857199 25.7142783,16.2857199 L30.4285627,16.2857199 C30.6652561,16.2857199 30.857134,16.4775979 30.857134,16.7142912 L30.857134,17.5714338 C30.857134,17.8081272 30.6652561,18.0000052 30.4285627,18.0000052 L30.4285627,18.0000052 Z" id="路径" fill="#FFFFFF"></path>
                    <path d="M23.5714218,18.0000052 L18.8571375,18.0000052 C18.6204441,18.0000052 18.4285662,17.8081272 18.4285662,17.5714338 L18.4285662,16.7142912 C18.4285662,16.4775978 18.6204441,16.2857199 18.8571375,16.2857199 L23.5714218,16.2857199 C23.685086,16.2857199 23.7940948,16.3308728 23.8744675,16.4112456 C23.9548402,16.4916183 23.9999932,16.6006271 23.9999932,16.7142912 L23.9999932,17.5714338 C23.9999932,17.8081272 23.8081152,18.0000052 23.5714218,18.0000052 L23.5714218,18.0000052 Z" id="路径" fill="#FFFFFF"></path>
                    <path d="M1.71428524,29.1428591 L15.428567,29.1428591 C16.3753406,29.1428591 17.1428522,28.3753475 17.1428522,27.4285739 L17.1428522,13.7142921 C17.1428522,12.7675185 16.3753406,12.0000069 15.428567,12.0000069 L1.71428524,12.0000069 C0.767511659,12.0000069 0,12.7675185 0,13.7142921 L0,27.4285739 C0,28.3753475 0.767511659,29.1428591 1.71428524,29.1428591 L1.71428524,29.1428591 Z" id="路径" stroke="#FFFFFF" fill="#1E55D2"></path>
                    <path d="M3.8357132,25.7142887 L7.21456938,20.5568616 L4.11942739,15.4285773 L6.61028383,15.4285773 L8.29971192,18.7067192 C8.45485472,19.0174334 8.56156898,19.2492905 8.61985469,19.4022905 L8.64171182,19.4022905 C8.75399752,19.1537191 8.87014032,18.9124335 8.99142601,18.678005 L10.7974255,15.4285773 L13.0838534,15.4285773 L9.90899716,20.5285758 L13.1644248,25.7142887 L10.7314255,25.7142887 L8.7797118,22.1134326 C8.68776776,21.9605944 8.6097399,21.7998053 8.54656899,21.6330041 L8.5178547,21.6330041 C8.48356901,21.7478612 8.40856902,21.903004 8.29242622,22.0992897 L6.28285537,25.7142887 L3.8357132,25.7142887 Z" id="路径" fill="#FFFFFF"></path>
                </g>
            </g>
        </g>
    </g>
</svg>