<?xml version="1.0" encoding="UTF-8"?>
<svg width="31px" height="31px" viewBox="0 0 31 31" version="1.1" xmlns="http://www.w3.org/2000/svg" xmlns:xlink="http://www.w3.org/1999/xlink">
    <title>66默认应用</title>
    <g id="页面-1" stroke="none" stroke-width="1" fill="none" fill-rule="evenodd">
        <g id="编组-3" transform="translate(0.145508, 0.180054)">
            <rect id="矩形备份-11" fill="#1E55D2" x="0" y="0" width="30" height="30" rx="5.625"></rect>
            <g id="编组备份-2" transform="translate(7.500487, 7.501712)" fill="#FFFFFF" fill-rule="nonzero">
                <path d="M1.19932806,6.72134093 L7.46474811,9.85303286 L13.7301682,6.72134093 C14.1394465,6.51568367 14.6383181,6.68265294 14.8439754,7.09193127 C15.0496326,7.5012096 14.8826634,8.00008121 14.473385,8.20573847 L7.83737466,11.5247618 C7.60321045,11.6408258 7.328322,11.6408258 7.09619399,11.5247618 L0.46018361,8.20573847 C0.0610863281,7.99600877 -0.0957018917,7.50528202 0.105882958,7.10211232 C0.30543159,6.69894262 0.792085932,6.52993713 1.19932806,6.72134093 Z" id="路径"></path>
                <path d="M1.19932806,10.0386468 L7.46474811,13.1703387 L13.7301682,10.0386468 C14.1394465,9.83298951 14.6383181,9.99995878 14.8439754,10.4092371 C15.0496326,10.8185154 14.8826634,11.3173871 14.473385,11.5230443 L7.83737466,14.8420676 C7.60321045,14.9581316 7.328322,14.9581316 7.09619399,14.8420676 L0.46018361,11.5230443 C0.0610863281,11.3133146 -0.0957018917,10.8225879 0.105882958,10.4194182 C0.30543159,10.0142122 0.792085932,9.84520676 1.19932806,10.0386468 L1.19932806,10.0386468 Z" id="路径"></path>
                <path d="M7.83533844,0.087048005 L14.4713488,3.40403509 C14.7523459,3.54453362 14.9294962,3.83163932 14.9294962,4.14521576 C14.9294962,4.4587922 14.7523459,4.74589789 14.4713488,4.88639643 L7.83533844,8.20745592 C7.60117423,8.32351993 7.32628579,8.32351993 7.09415777,8.20745592 L0.458147394,4.89046884 C0.177150335,4.7499703 0,4.46286461 0,4.14928817 C0,3.83571173 0.177150318,3.54860604 0.458147394,3.40810752 L7.09415777,0.087048005 C7.32832199,-0.0290160017 7.60321043,-0.0290160017 7.83533844,0.087048005 Z" id="路径"></path>
            </g>
        </g>
    </g>
</svg>