<?xml version="1.0" encoding="UTF-8"?>
<svg width="41px" height="41px" viewBox="0 0 41 41" version="1.1" xmlns="http://www.w3.org/2000/svg" xmlns:xlink="http://www.w3.org/1999/xlink">
    <title>59-下载文件-图</title>
    <g id="页面-1" stroke="none" stroke-width="1" fill="none" fill-rule="evenodd">
        <g id="编组-198备份" transform="translate(0.145508, 0.180054)">
            <g id="编组-23备份-2" transform="translate(4.000000, 3.000000)" fill-rule="nonzero">
                <path d="M19.9945247,0.000848107238 L19.9945247,3.14979914 L31.5429402,3.14979914 C32.195968,3.17778605 32.9092101,3.14979914 33.4748848,3.54840055 C33.8734862,4.12934089 33.8251452,4.87056986 33.8734862,5.53971137 C33.8514359,12.3727571 33.8514359,19.2066509 33.8734862,26.0396966 C33.8734862,27.1871598 33.9761049,28.3575213 33.7411845,29.4846304 C33.5902248,30.3047316 32.6267967,30.3242376 31.9856421,30.3530726 L20.0191193,30.3530726 L20.0191193,33.8488917 L17.629207,33.8488917 C11.7434757,32.7743641 5.86961763,31.7668354 0,30.7152062 L0,3.15403961 C5.90523734,2.10241039 11.8113228,1.06774291 17.7131677,0 L19.9945247,0.000848107238 Z" id="路径" fill="#1E55D2"></path>
                <polygon id="路径" fill="#FFFFFF" points="19.9945247 4.33288202 32.6904033 4.33288202 32.6904033 29.1386104 19.9945247 29.1386104 19.9945247 26.7766851 23.0730845 26.7766851 23.0730845 24.0203989 19.9945247 24.0203989 19.9945247 22.4276894 23.0730845 22.4276894 23.0730845 19.6883649 19.9945247 19.6883649 19.9945247 18.1151615 23.0730845 18.1151615 23.0730845 15.3554829 19.9945247 15.3554829 19.9945247 13.7627734 23.0730845 13.7627734 23.0730845 11.0268413 19.9945247 11.0268413 19.9945247 9.43413188 23.0730845 9.43413188 23.0730845 6.69480734 19.9945247 6.69480734"></polygon>
                <path d="M11.3932153,10.3856867 C12.2650499,10.3220801 13.1368844,10.2678024 14.0095671,10.2220057 C12.9816843,12.3769975 11.9470169,14.528597 10.9072609,16.6776522 C11.9622824,18.880137 13.046139,21.0580272 14.0935278,23.2757775 L11.3058623,23.097679 C10.6528344,21.4523881 9.85563166,19.8673115 9.38579085,18.1473889 C8.86421667,19.7400983 8.11620299,21.2573279 7.51490853,22.8220504 C6.67445322,22.8220504 5.82975749,22.7745575 4.99015029,22.7389377 C5.97732481,20.7476269 6.93227201,18.7563161 7.95252197,16.7938403 C7.08407976,14.7669097 6.13676537,12.7789913 5.24457672,10.7596935 L7.7812082,10.6129743 C8.35451576,12.1539504 8.97616431,13.6711799 9.45363789,15.2520161 C9.98793339,13.575346 10.7520608,12.0029907 11.3932153,10.3856867 Z" id="路径" fill="#FFFFFF"></path>
                <path d="M24.6140605,13.7822795 L29.9985718,13.7822795 L29.9985718,11.0268413 L24.6140605,11.0268413 L24.6140605,13.7831276 L24.6140605,13.7822795 Z M24.6140605,18.1160096 L29.9985718,18.1160096 L29.9985718,15.3554829 L24.6140605,15.3554829 L24.6140605,18.1160096 Z M24.6140605,22.4438031 L29.9985718,22.4438031 L29.9985718,19.6875168 L24.6140605,19.6875168 L24.6140605,22.4438031 Z M24.6140605,26.7766851 L29.9985718,26.7766851 L29.9985718,24.0203989 L24.6140605,24.0203989 L24.6140605,26.7766851 Z M24.6140605,9.45024554 L29.9985718,9.45024554 L29.9985718,6.69395927 L24.6140605,6.69395927 L24.6140605,9.45024554 Z" id="形状" fill="#1E55D2"></path>
            </g>
            <rect id="矩形" stroke="#979797" fill="#D8D8D8" opacity="0" x="0.5" y="0.5" width="39" height="39"></rect>
        </g>
    </g>
</svg>