<?xml version="1.0" encoding="UTF-8"?>
<svg width="35px" height="35px" viewBox="0 0 35 35" version="1.1" xmlns="http://www.w3.org/2000/svg" xmlns:xlink="http://www.w3.org/1999/xlink">
    <title>00-logo备份</title>
    <g id="页面-1" stroke="none" stroke-width="1" fill="none" fill-rule="evenodd">
        <path d="M17.8213654,0.947982788 L32.578354,5.7802101 L32.578354,23.7622447 L17.8213654,34.6979828 L3.06437679,23.7622447 L3.06437679,5.7802101 L17.8213654,0.947982788 Z M17.821064,4.69288451 L6.62376399,8.35965329 L6.62376399,21.9693797 L17.821064,30.2677386 L29.018364,21.9693797 L29.018364,8.35965329 L17.821064,4.69288451 Z M23.7063094,14.5235524 L12.6030291,23.8401338 L10.9286094,23.8402636 L10.9286013,19.3463197 L10.9269699,19.3446739 L10.9286013,19.3432052 L10.9286094,19.3388022 L10.9339405,19.3387558 L16.7097523,14.5235524 L23.7063094,14.5235524 Z M25.1832371,19.3388022 L25.1832371,23.8402636 L14.4490523,23.8401338 L19.8135985,19.3387558 L25.1832371,19.3388022 Z M25.1832371,8.83539229 L25.1832371,13.2842683 L25.1203036,13.3370669 L10.9286094,13.3368537 L10.9286094,8.83539229 L25.1832371,8.83539229 Z" id="形状备份-10" fill="#FFFFFF"></path>
    </g>
</svg>