<?xml version="1.0" encoding="UTF-8"?>
<svg width="16px" height="16px" viewBox="0 0 16 16" version="1.1" xmlns="http://www.w3.org/2000/svg" xmlns:xlink="http://www.w3.org/1999/xlink">
    <title>矩形备份 53</title>
    <g id="接入端" stroke="none" stroke-width="1" fill="none" fill-rule="evenodd">
        <g id="编组-184" transform="translate(0.000000, 1.250000)"></g>
        <path d="M0,15.75 L0,14.25 L1.25,14.25 L1.25,1.25 L10.75,1.25 L10.75,7.25 L14.75,7.25 L14.75,14.25 L16,14.25 L16,15.75 L0,15.75 Z M9.25,2.75 L2.75,2.75 L2.75,14.25 L4.916,14.25 L4.91666667,11.2011757 L6.41666667,11.2011757 L6.416,14.25 L9.25,14.25 L9.25,2.75 Z M13.25,8.75 L10.75,8.75 L10.75,14.25 L13.25,14.25 L13.25,8.75 Z M7.41666667,7.25 L7.41666667,8.75 L3.91666667,8.75 L3.91666667,7.25 L7.41666667,7.25 Z M7.41666667,4.25 L7.41666667,5.75 L3.91666667,5.75 L3.91666667,4.25 L7.41666667,4.25 Z" id="形状" fill="#1E55D1" fill-rule="nonzero"></path>
    </g>
</svg>